<?xml version="1.0" standalone="no"?>
<!DOCTYPE svg PUBLIC "-//W3C//DTD SVG 20010904//EN"
 "http://www.w3.org/TR/2001/REC-SVG-20010904/DTD/svg10.dtd">
<svg version="1.0" xmlns="http://www.w3.org/2000/svg"
 width="532.000000pt" height="530.000000pt" viewBox="0 0 532.000000 530.000000"
 preserveAspectRatio="xMidYMid meet">

<g transform="translate(0.000000,530.000000) scale(0.100000,-0.100000)"
fill="#000000" stroke="none">
<path d="M2588 4231 c-18 -15 -105 -83 -193 -151 l-160 -122 -5 -219 c-5 -222
-6 -227 -42 -241 -4 -2 -8 -56 -9 -121 -2 -65 -6 -120 -9 -122 -4 -2 -14 1
-23 8 -14 10 -17 44 -18 260 -1 182 -4 247 -12 244 -20 -6 -26 -74 -26 -309
-1 -217 0 -228 19 -238 19 -10 29 -50 13 -50 -5 1 -26 13 -48 28 -35 24 -40
33 -43 71 -2 30 -10 50 -25 62 -37 31 -45 24 -46 -40 l-1 -60 135 -83 c129
-80 134 -84 135 -117 l0 -33 -27 18 c-16 10 -61 35 -100 57 l-73 38 0 -104 0
-104 40 -28 40 -28 0 -303 0 -304 -25 0 -24 0 -3 142 c-2 102 -6 143 -15 146
-10 3 -13 -30 -13 -143 l0 -146 -27 3 -28 3 -3 320 c-1 193 -6 323 -12 329
-12 12 -11 42 -13 -334 -2 -291 -3 -315 -19 -318 -17 -3 -18 19 -18 350 l0
354 -72 47 -73 46 -3 -400 -2 -399 -25 0 -25 0 0 421 0 420 -33 14 c-18 7 -71
18 -117 24 -47 6 -102 14 -122 17 l-38 6 0 -491 c0 -484 0 -491 -20 -491 -20
0 -20 7 -20 509 0 415 2 511 14 520 10 8 57 8 183 -2 l170 -13 79 -65 c43 -36
85 -69 93 -73 11 -7 12 58 7 405 -4 228 -6 418 -6 422 0 4 -9 3 -20 -3 -19
-10 -20 -21 -20 -360 0 -194 -4 -350 -9 -350 -27 0 -32 34 -31 246 1 423 1
446 -12 442 -6 -2 -12 -20 -13 -39 0 -19 -2 -64 -3 -101 l-2 -67 -47 -7 c-27
-4 -64 -14 -83 -24 -19 -9 -70 -29 -112 -45 -43 -15 -78 -34 -78 -41 0 -9 24
-5 87 17 48 16 88 29 90 29 2 0 3 -29 3 -65 0 -36 -1 -65 -3 -65 -1 0 -30 -10
-62 -21 -33 -12 -109 -39 -170 -59 -90 -31 -111 -42 -113 -59 -4 -26 -7 -27
201 39 l147 48 0 -24 c0 -13 -6 -24 -12 -24 -7 0 -61 -14 -120 -32 -68 -20
-108 -37 -111 -47 -2 -9 -30 -24 -66 -35 -59 -18 -84 -46 -41 -46 17 0 20 -7
20 -52 0 -75 -8 -95 -41 -108 -27 -12 -29 -16 -29 -65 0 -62 -18 -101 -82
-178 l-48 -59 0 -273 0 -274 -77 -3 -78 -3 0 -100 0 -100 335 -5 335 -5 3
-266 c2 -208 0 -268 -10 -271 -7 -2 -226 -2 -485 0 l-473 4 0 1169 0 1169 395
0 395 0 0 25 0 25 -420 0 -420 0 0 -1220 0 -1220 525 0 c518 0 525 0 525 20 0
20 7 20 935 20 928 0 935 0 935 -20 0 -20 7 -20 570 -20 l570 0 0 1220 0 1220
-300 0 -300 0 0 -25 0 -25 275 0 275 0 0 -1170 0 -1170 -530 0 -531 0 4 268 4
267 376 3 375 2 7 94 c4 52 4 99 1 105 -4 6 -39 11 -82 11 l-74 0 0 349 c0
380 3 361 -56 361 -23 0 -24 2 -24 75 l0 75 -45 0 -45 0 0 406 0 406 -26 -6
c-32 -8 -321 -123 -438 -174 -57 -25 -92 -46 -97 -59 -4 -11 -21 -26 -38 -33
-18 -7 -30 -14 -28 -17 2 -2 40 10 83 27 43 16 82 30 86 30 5 0 8 -39 8 -87
l0 -88 -96 -39 c-87 -36 -117 -57 -101 -73 4 -3 47 11 97 31 49 20 95 36 101
36 6 0 9 -14 7 -31 -3 -30 -9 -35 -88 -68 l-85 -37 -3 -502 -2 -502 -25 0 -25
0 0 214 c0 181 2 215 15 220 8 3 15 12 15 20 0 8 -7 21 -15 30 -12 12 -15 50
-15 210 0 119 -4 197 -10 201 -5 3 -10 31 -10 61 0 40 -4 54 -12 51 -10 -3
-13 -113 -15 -500 -1 -274 -6 -496 -10 -494 -4 1 -9 222 -10 492 l-2 490 -35
25 c-20 14 -36 32 -36 41 0 9 -20 33 -45 53 l-45 37 0 243 0 244 -57 43 c-101
76 -401 318 -408 329 -10 16 -22 12 -57 -19z m198 -269 c134 -110 274 -235
274 -246 0 -16 -26 2 -151 107 -227 189 -289 247 -261 247 4 0 66 -49 138
-108z m-508 -859 c-2 -674 -6 -857 -15 -861 -10 -3 -13 172 -13 851 0 469 3
857 7 860 3 4 10 7 15 7 4 0 7 -386 6 -857z m470 656 l92 -81 0 -719 0 -719
-40 0 -39 0 -3 67 -3 67 -55 31 -55 31 -3 702 c-1 386 1 702 6 702 4 0 49 -37
100 -81z m-250 -721 l-3 -793 -52 -3 c-29 -2 -53 1 -54 5 -5 43 -6 1502 -1
1510 10 14 93 73 104 73 4 0 7 -357 6 -792z m1462 115 c-1 -324 -4 -679 -7
-791 l-6 -203 -26 3 -26 3 -3 583 -2 584 -28 -6 c-61 -14 -207 -65 -210 -74
-1 -5 22 -39 53 -74 l55 -65 0 -437 0 -436 -65 0 -65 0 0 533 0 533 135 43
135 42 0 70 c0 52 -3 69 -14 69 -8 0 -72 -18 -142 -40 -71 -22 -132 -40 -136
-40 -5 0 -8 37 -8 83 l0 83 163 61 c89 34 170 62 181 62 17 1 18 -21 16 -586z
m-828 134 c-9 -10 -13 -159 -15 -533 l-2 -519 -3 550 c-2 512 -1 548 15 533
12 -13 14 -20 5 -31z m438 -527 c0 -340 -3 -520 -10 -520 -7 0 -10 170 -10
491 0 444 -2 491 -16 485 -9 -3 -20 -6 -25 -6 -5 0 -9 -197 -9 -485 l0 -485
-30 0 -30 0 0 499 0 498 58 21 c31 11 60 21 65 21 4 1 7 -233 7 -519z m-1990
495 c0 -10 -11 -15 -35 -15 -56 0 -41 25 18 29 9 0 17 -6 17 -14z m-20 -590
l0 -425 -25 0 -25 0 0 425 0 425 25 0 25 0 0 -425z m58 -2 c-3 -389 -4 -418
-20 -421 -17 -3 -18 22 -18 417 0 415 0 421 20 421 20 0 20 -5 18 -417z m1282
-209 c-5 -164 -7 -121 -7 201 0 314 2 363 7 209 3 -111 3 -295 0 -410z m1117
489 c-3 -10 -5 -4 -5 12 0 17 2 24 5 18 2 -7 2 -21 0 -30z m-1847 -377 c0
-199 -4 -317 -10 -321 -7 -4 -10 103 -10 314 0 207 4 321 10 321 6 0 10 -111
10 -314z m1910 -72 l0 -334 -35 0 -35 0 0 333 c0 184 2 336 5 339 3 2 18 3 35
0 l30 -4 0 -334z m-1525 -54 c-3 -5 -13 -10 -21 -10 -8 0 -12 5 -9 10 3 6 13
10 21 10 8 0 12 -4 9 -10z m1163 -252 c7 -7 12 -16 12 -20 0 -4 -497 -8 -1105
-8 -608 0 -1105 2 -1105 4 0 2 3 11 6 20 6 14 111 16 1093 16 832 0 1090 -3
1099 -12z m102 -18 c0 -5 -11 -10 -25 -10 -14 0 -25 5 -25 10 0 6 11 10 25 10
14 0 25 -4 25 -10z m460 -115 l0 -65 -1629 0 c-897 0 -1631 3 -1634 8 -2 4 -1
33 1 65 l4 57 1629 0 1629 0 0 -65z m-2190 -305 c29 -38 53 -70 55 -70 1 0 24
29 51 65 48 63 85 88 105 68 7 -7 -11 -42 -51 -101 -87 -128 -108 -131 -180
-27 -25 36 -48 65 -52 65 -4 0 -9 -42 -10 -92 l-3 -93 -32 -3 -33 -3 0 130 0
131 49 0 49 0 52 -70z m420 15 l0 -55 101 0 102 0 -5 44 c-7 55 1 68 38 64
l29 -3 0 -125 c0 -123 0 -125 -23 -128 -34 -5 -52 15 -52 59 l0 39 -95 0 -95
0 0 -51 0 -50 -32 3 -33 3 -3 114 c-1 63 0 121 2 128 3 7 19 13 36 13 30 0 30
0 30 -55z m775 30 c19 -18 25 -35 25 -69 0 -68 -22 -78 -163 -80 l-112 -1 -5
-40 c-4 -35 -9 -40 -32 -43 l-28 -3 0 130 0 131 145 0 c142 0 147 -1 170 -25z"/>
<path d="M3034 1756 c-3 -8 -4 -25 -2 -38 3 -22 8 -23 90 -26 93 -3 128 7 128
36 0 34 -21 42 -117 42 -72 0 -95 -3 -99 -14z"/>
<path d="M3475 3880 c-15 -7 -10 -9 23 -9 23 -1 42 4 42 9 0 12 -37 12 -65 0z"/>
<path d="M3560 3880 c0 -6 80 -10 220 -10 140 0 220 4 220 10 0 6 -80 10 -220
10 -140 0 -220 -4 -220 -10z"/>
<path d="M3448 3713 c34 -2 90 -2 125 0 34 2 6 3 -63 3 -69 0 -97 -1 -62 -3z"/>
<path d="M1749 1282 c-46 -38 -24 -103 40 -119 32 -8 98 24 82 40 -8 8 -14 8
-23 -1 -7 -7 -27 -12 -45 -12 -26 0 -34 5 -39 25 -10 39 1 55 40 55 19 0 38
-4 41 -10 9 -15 25 -12 25 5 0 35 -83 47 -121 17z"/>
<path d="M1970 1280 c-45 -45 -11 -114 55 -114 70 0 101 72 49 113 -34 27 -78
27 -104 1z m84 -16 c19 -7 21 -45 4 -62 -7 -7 -25 -12 -40 -12 -21 0 -29 6
-34 25 -3 14 -4 32 0 40 5 15 42 20 70 9z"/>
<path d="M2190 1231 l0 -71 45 2 c52 3 62 25 13 30 -32 3 -33 4 -34 52 0 28
-6 52 -12 54 -8 2 -12 -18 -12 -67z"/>
<path d="M2360 1230 l0 -70 50 0 c38 0 50 4 50 15 0 10 -11 15 -35 15 l-35 0
0 55 c0 42 -3 55 -15 55 -12 0 -15 -14 -15 -70z"/>
<path d="M2540 1230 l0 -70 56 0 c40 0 54 3 51 13 -2 6 -21 12 -43 13 l-39 0
-3 57 c-4 81 -22 71 -22 -13z"/>
<path d="M2737 1293 c-2 -5 -3 -35 -3 -68 l1 -60 40 -1 c45 -1 65 4 65 17 0 5
-18 9 -40 9 -29 0 -40 4 -40 15 0 10 10 15 34 15 48 0 55 18 9 22 -52 4 -56
28 -4 28 30 0 41 4 41 15 0 11 -12 15 -49 15 -28 0 -52 -3 -54 -7z"/>
<path d="M2930 1230 l0 -70 50 0 c38 0 50 4 50 15 0 10 -11 15 -35 15 l-35 0
0 55 c0 42 -3 55 -15 55 -12 0 -15 -14 -15 -70z"/>
<path d="M3104 1286 c-3 -7 -4 -37 -2 -66 3 -57 24 -80 30 -33 5 41 41 43 64
4 10 -17 24 -31 31 -31 16 0 17 12 1 28 -9 9 -9 18 0 37 16 34 15 40 -4 59
-20 21 -112 22 -120 2z m104 -34 c3 -10 -6 -12 -34 -10 -20 2 -39 9 -42 16 -3
10 6 12 34 10 20 -2 39 -9 42 -16z"/>
<path d="M3340 1253 c17 -26 30 -55 30 -64 0 -50 39 -4 88 104 2 4 -2 7 -10 7
-7 0 -24 -17 -37 -37 l-24 -37 -21 37 c-11 20 -29 37 -38 37 -15 0 -13 -7 12
-47z"/>
<path d="M1453 1233 c37 -2 96 -2 130 0 34 2 4 3 -68 3 -71 0 -99 -1 -62 -3z"/>
<path d="M3622 1233 c37 -2 100 -2 140 0 40 1 10 3 -67 3 -77 0 -110 -1 -73
-3z"/>
</g>
</svg>
